Jump_normalized_pl10_filtered_grf
version=1
nRows=25
nColumns=37
inDegrees=yes
endheader
time		1_ground_force_vx		1_ground_force_vy		1_ground_force_vz		1_ground_force_px		1_ground_force_py		1_ground_force_pz		1_ground_torque_x		1_ground_torque_y		1_ground_torque_z		2_ground_force_vx		2_ground_force_vy		2_ground_force_vz		2_ground_force_px		2_ground_force_py		2_ground_force_pz		2_ground_torque_x		2_ground_torque_y		2_ground_torque_z		3_ground_force_vx		3_ground_force_vy		3_ground_force_vz		3_ground_force_px		3_ground_force_py		3_ground_force_pz		3_ground_torque_x		3_ground_torque_y		3_ground_torque_z		4_ground_force_vx		4_ground_force_vy		4_ground_force_vz		4_ground_force_px		4_ground_force_py		4_ground_force_pz		4_ground_torque_x		4_ground_torque_y		4_ground_torque_z		
0.234500		-0.000000		0.000000		0.000000		0.168179		0.000000		0.038553		0.000000		0.000000		-0.000000		0.000000		0.000000		0.000000		-0.185506		0.000000		0.247637		0.000000		-0.000000		0.000000		-95.012854		591.937873		-61.151524		0.413476		1.261968		1.878360		4.751817		-29.604208		3.058332		136.823713		731.860234		-92.007842		-0.354439		1.255271		1.905393		7.332166		39.219228		-4.930554		
0.236697		-0.000000		0.000000		-0.000000		0.168179		0.000000		0.038553		0.000000		0.000000		-0.000000		0.000000		-0.000000		0.000000		-0.185506		0.000000		0.247637		0.000000		-0.000000		-0.000000		-93.787845		582.931299		-67.289173		0.413457		1.261979		1.878423		4.691396		-29.159015		3.365896		135.829422		720.575735		-96.365900		-0.354427		1.255291		1.905423		7.281603		38.628939		-5.166026		
0.238894		0.000000		0.000000		-0.000000		0.168179		0.000000		0.038553		0.000000		-0.000000		-0.000000		0.000000		-0.000000		0.000000		-0.185506		0.000000		0.247637		-0.000000		-0.000000		-0.000000		-92.629501		573.791280		-73.391290		0.413439		1.261992		1.878484		4.632172		-28.693880		3.670115		134.861395		709.038830		-100.702608		-0.354415		1.255310		1.905453		7.229488		38.009306		-5.398344		
0.241091		0.000000		-0.000000		-0.000000		0.168179		0.000000		0.038553		-0.000000		-0.000000		0.000000		0.000000		-0.000000		-0.000000		-0.185506		0.000000		0.247637		-0.000000		-0.000000		-0.000000		-91.544669		564.552127		-79.433498		0.413421		1.262006		1.878544		4.574374		-28.209975		3.969192		133.923703		697.240952		-104.989655		-0.354402		1.255330		1.905480		7.175914		37.359645		-5.625566		
0.243288		0.000000		-0.000000		-0.000000		0.168179		0.000000		0.038553		-0.000000		-0.000000		0.000000		0.000000		-0.000000		-0.000000		-0.185506		0.000000		0.247637		-0.000000		-0.000000		-0.000000		-90.537288		555.248336		-85.392686		0.413404		1.262020		1.878601		4.518145		-27.708942		4.261403		133.017151		685.180690		-109.195706		-0.354389		1.255349		1.905507		7.120890		36.680212		-5.845638		
0.245485		0.000000		-0.000000		-0.000000		0.168179		0.000000		0.038553		-0.000000		-0.000000		0.000000		0.000000		-0.000000		-0.000000		-0.185506		0.000000		0.247637		-0.000000		0.000000		-0.000000		-89.607326		545.912299		-91.248614		0.413387		1.262035		1.878656		4.463502		-27.192873		4.545257		132.138513		672.867433		-113.289664		-0.354376		1.255368		1.905534		7.064317		35.972471		-6.056629		
0.247682		0.000000		-0.000000		-0.000000		0.168179		0.000000		0.038553		-0.000000		-0.000000		0.000000		0.000000		-0.000000		-0.000000		-0.185506		0.000000		0.247637		-0.000000		0.000000		-0.000000		-88.753456		536.572370		-96.979079		0.413371		1.262051		1.878707		4.410389		-26.663677		4.819131		131.281166		660.312868		-117.236609		-0.354363		1.255386		1.905559		7.005901		35.238019		-6.256399		
0.249879		0.000000		-0.000000		-0.000000		0.168179		0.000000		0.038553		-0.000000		-0.000000		0.000000		-0.000000		-0.000000		-0.000000		-0.185506		0.000000		0.247637		-0.000000		0.000000		-0.000000		-87.967746		527.252584		-102.567610		0.413356		1.262068		1.878754		4.358555		-26.123894		5.081928		130.432975		647.548082		-121.009464		-0.354350		1.255404		1.905584		6.945242		34.480390		-6.443458		
0.252076		0.000000		-0.000000		-0.000000		0.168179		0.000000		0.038553		-0.000000		-0.000000		0.000000		-0.000000		-0.000000		-0.000000		-0.185506		0.000000		0.247637		-0.000000		0.000000		-0.000000		-87.239673		517.971626		-107.995807		0.413343		1.262086		1.878799		4.307625		-25.575845		5.332492		129.577722		634.609922		-124.580654		-0.354337		1.255420		1.905607		6.881738		33.703482		-6.616345		
0.254273		0.000000		-0.000000		-0.000000		0.168179		0.000000		0.038553		-0.000000		-0.000000		0.000000		-0.000000		-0.000000		-0.000000		-0.185506		0.000000		0.247637		-0.000000		0.000000		-0.000000		-86.554224		508.742565		-113.246015		0.413331		1.262104		1.878840		4.257064		-25.021898		5.569852		128.695008		621.547168		-127.925917		-0.354322		1.255436		1.905630		6.814661		32.912198		-6.773927		
0.256470		0.000000		-0.000000		-0.000000		0.168179		0.000000		0.038553		-0.000000		-0.000000		0.000000		-0.000000		-0.000000		-0.000000		-0.185506		0.000000		0.247637		-0.000000		0.000000		-0.000000		-85.892292		499.571463		-118.304837		0.413321		1.262124		1.878878		4.206208		-24.464380		5.793470		127.761141		608.418880		-131.032305		-0.354308		1.255450		1.905653		6.743230		32.112336		-6.915880		
0.258667		0.000000		-0.000000		-0.000000		0.168179		0.000000		0.038553		-0.000000		-0.000000		0.000000		-0.000000		-0.000000		-0.000000		-0.185506		0.000000		0.247637		-0.000000		0.000000		-0.000000		-85.232297		490.460497		-123.154055		0.413312		1.262145		1.878913		4.154273		-23.905351		6.002587		126.747870		595.289230		-133.886774		-0.354294		1.255464		1.905674		6.666461		31.309992		-7.041932		
0.260864		0.000000		-0.000000		-0.000000		0.168179		0.000000		0.038553		-0.000000		-0.000000		0.000000		-0.000000		0.000000		-0.000000		-0.185506		0.000000		0.247637		-0.000000		0.000000		0.000000		-84.550541		481.405155		-127.783477		0.413306		1.262167		1.878945		4.100439		-23.346674		6.197089		125.627571		582.225742		-136.492593		-0.354279		1.255478		1.905694		6.583517		30.511576		-7.152892		
0.263061		-0.000000		-0.000000		0.000000		0.168179		0.000000		0.038553		0.000000		0.000000		0.000000		-0.000000		0.000000		0.000000		-0.185506		0.000000		0.247637		0.000000		0.000000		0.000000		-83.822710		472.398165		-132.181475		0.413301		1.262191		1.878975		4.043853		-22.789876		6.376813		124.371274		569.294786		-138.857259		-0.354264		1.255492		1.905712		6.493515		29.723306		-7.249835		
0.265258		-0.000000		0.000000		0.000000		0.168179		0.000000		0.038553		0.000000		0.000000		-0.000000		-0.000000		0.000000		0.000000		-0.185506		0.000000		0.247637		0.000000		0.000000		0.000000		-83.024419		463.429578		-136.337876		0.413298		1.262215		1.879002		3.983656		-22.236170		6.541709		122.950249		556.559261		-140.996064		-0.354247		1.255507		1.905731		6.395615		28.951063		-7.334311		
0.267455		-0.000000		0.000000		0.000000		0.168179		0.000000		0.038553		0.000000		0.000000		-0.000000		-0.000000		0.000000		0.000000		-0.185506		0.000000		0.247637		0.000000		0.000000		0.000000		-82.135068		454.486857		-140.251281		0.413296		1.262240		1.879026		3.919160		-21.686320		6.692231		121.342422		544.067409		-142.937222		-0.354229		1.255523		1.905746		6.289272		28.199441		-7.408544		
0.269652		-0.000000		0.000000		0.000000		0.168179		0.000000		0.038553		0.000000		0.000000		-0.000000		-0.000000		0.000000		0.000000		-0.185506		0.000000		0.247637		0.000000		-0.000000		0.000000		-81.134658		445.556859		-143.916770		0.413296		1.262267		1.879047		3.849683		-21.140823		6.828558		119.524316		531.860688		-144.709488		-0.354211		1.255540		1.905759		6.173839		27.472423		-7.474730		
0.271848		-0.000000		0.000000		0.000000		0.168179		0.000000		0.038553		0.000000		0.000000		-0.000000		-0.000000		0.000000		0.000000		-0.185506		0.000000		0.247637		0.000000		-0.000000		0.000000		-80.009225		436.625923		-147.336961		0.413298		1.262294		1.879065		3.774786		-20.599748		6.951251		117.482701		519.955625		-146.350078		-0.354191		1.255558		1.905770		6.049032		26.771847		-7.535369		
0.274045		-0.000000		0.000000		0.000000		0.168179		0.000000		0.038553		0.000000		0.000000		-0.000000		0.000000		0.000000		0.000000		-0.185506		0.000000		0.247637		0.000000		-0.000000		0.000000		-78.748005		427.679769		-150.513759		0.413299		1.262322		1.879079		3.694150		-20.062902		7.060750		115.207264		508.350905		-147.896193		-0.354168		1.255579		1.905778		5.914587		26.098056		-7.592790		
0.276242		-0.000000		0.000000		0.000000		0.168179		0.000000		0.038553		0.000000		0.000000		-0.000000		0.000000		0.000000		0.000000		-0.185506		0.000000		0.247637		0.000000		-0.000000		0.000000		-77.342551		418.702589		-153.446090		0.413301		1.262349		1.879090		3.607548		-19.529871		7.157285		112.690399		497.025710		-149.382631		-0.354144		1.255602		1.905784		5.770227		25.449826		-7.649017		
0.278439		-0.000000		0.000000		0.000000		0.168179		0.000000		0.038553		0.000000		0.000000		-0.000000		0.000000		0.000000		0.000000		-0.185506		0.000000		0.247637		0.000000		-0.000000		0.000000		-75.791824		409.677548		-156.137356		0.413304		1.262376		1.879097		3.515055		-18.999930		7.241293		109.936272		485.929576		-150.839351		-0.354117		1.255626		1.905787		5.616042		24.823479		-7.705553		
0.280636		-0.000000		0.000000		0.000000		0.168179		0.000000		0.038553		0.000000		0.000000		-0.000000		0.000000		0.000000		0.000000		-0.185506		0.000000		0.247637		0.000000		-0.000000		0.000000		-74.092826		400.583484		-158.579238		0.413306		1.262404		1.879100		3.416671		-18.472262		7.312610		106.946732		474.997662		-152.285308		-0.354087		1.255653		1.905786		5.451913		24.214350		-7.763169		
0.282833		-0.000000		0.000000		0.000000		0.168179		0.000000		0.038553		0.000000		0.000000		-0.000000		0.000000		0.000000		0.000000		-0.185506		0.000000		0.247637		0.000000		-0.000000		0.000000		-72.247064		391.396258		-160.762673		0.413306		1.262430		1.879100		3.312586		-17.945828		7.371078		103.733013		464.142731		-153.726146		-0.354055		1.255681		1.905782		5.278034		23.616019		-7.821726		
0.285030		-0.000000		0.000000		-0.000000		0.168179		0.000000		0.038553		0.000000		0.000000		-0.000000		0.000000		-0.000000		0.000000		-0.185506		0.000000		0.247637		0.000000		-0.000000		-0.000000		-70.255079		382.086451		-162.669684		0.413305		1.262456		1.879098		3.202954		-17.419454		7.416163		100.308249		453.265912		-155.151131		-0.354020		1.255710		1.905775		5.094642		23.021314		-7.880103		
0.287227		0.000000		0.000000		-0.000000		0.168179		0.000000		0.038553		0.000000		-0.000000		-0.000000		0.000000		-0.000000		0.000000		-0.185506		0.000000		0.247637		-0.000000		-0.000000		-0.000000		-68.113006		372.615972		-164.266598		0.413302		1.262482		1.879092		3.087767		-16.891794		7.446677		96.684488		442.257309		-156.529849		-0.353981		1.255740		1.905764		4.901917		22.422502		-7.936077		
